<?xml version="1.0" encoding="UTF-8" standalone="no"?>
<!-- Uploaded to: SVG Repo, www.svgrepo.com, Transformed by: SVG Repo Mixer Tools -->

<svg
   width="417.02344"
   height="417.02188"
   viewBox="0 -6 266.895 266.894"
   fill="#000000"
   version="1.1"
   id="svg9"
   sodipodi:docname="facebook-icon-white-logo-svgrepo-com.svg"
   inkscape:version="1.2.2 (b0a8486541, 2022-12-01)"
   xmlns:inkscape="http://www.inkscape.org/namespaces/inkscape"
   xmlns:sodipodi="http://sodipodi.sourceforge.net/DTD/sodipodi-0.dtd"
   xmlns="http://www.w3.org/2000/svg"
   xmlns:svg="http://www.w3.org/2000/svg">
  <defs
     id="defs13" />
  <sodipodi:namedview
     id="namedview11"
     pagecolor="#505050"
     bordercolor="#eeeeee"
     borderopacity="1"
     inkscape:showpageshadow="0"
     inkscape:pageopacity="0"
     inkscape:pagecheckerboard="0"
     inkscape:deskcolor="#505050"
     showgrid="false"
     inkscape:zoom="1.28375"
     inkscape:cx="206.42648"
     inkscape:cy="214.60565"
     inkscape:window-width="2560"
     inkscape:window-height="1356"
     inkscape:window-x="0"
     inkscape:window-y="0"
     inkscape:window-maximized="1"
     inkscape:current-layer="SVGRepo_iconCarrier" />
  <g
     id="SVGRepo_bgCarrier"
     stroke-width="0"
     transform="translate(-123.553,-118.553)" />
  <g
     id="SVGRepo_tracerCarrier"
     stroke-linecap="round"
     stroke-linejoin="round"
     transform="translate(-123.553,-118.553)" />
  <g
     id="SVGRepo_iconCarrier"
     transform="translate(-123.553,-118.553)">
    <path
       d="M 375.717,112.553 H 138.283 c -8.137,0 -14.73,6.594 -14.73,14.73 v 237.434 c 0,8.135 6.594,14.73 14.73,14.73 H 266.109 V 276.092 h -34.781 v -40.28 h 34.781 v -29.705 c 0,-34.473 21.055,-53.244 51.807,-53.244 14.73,0 27.391,1.097 31.08,1.587 v 36.026 l -21.328,0.01 c -16.725,0 -19.963,7.947 -19.963,19.609 v 25.717 h 39.887 l -5.193,40.28 h -34.693 v 103.355 h 68.012 c 8.135,0 14.73,-6.596 14.73,-14.73 V 127.283 c -10e-4,-8.137 -6.596,-14.73 -14.731,-14.73 z"
       fill="#ffffff"
       id="path6" />
  </g>
</svg>
