<svg xmlns="http://www.w3.org/2000/svg" width="100%" viewBox="0 0 24 24" aria-labelledby="outline-navigation-drawer-1-navigation-title" style="fill: rgb(254, 253, 250);"><title id="outline-navigation-drawer-1-navigation-title">navigation-drawer-1(navigation)</title><path d="M4.043 6H19c.276 0 .5-.224.5-.5S19.276 5 19 5H4.043c-.276 0-.5.224-.5.5S3.767 6 4.043 6zM19 9H4.043c-.276 0-.5.224-.5.5s.224.5.5.5H19c.276 0 .5-.224.5-.5S19.276 9 19 9zM19 13H4.043c-.276 0-.5.224-.5.5s.224.5.5.5H19c.276 0 .5-.224.5-.5S19.276 13 19 13zM19 17H4.043c-.276 0-.5.224-.5.5s.224.5.5.5H19c.276 0 .5-.224.5-.5S19.276 17 19 17z"/><g><path fill="none" d="M0 0H24V24H0z"/></g></svg>