<?xml version="1.0" encoding="utf-8"?>
<!-- Generator: Adobe Illustrator 23.0.2, SVG Export Plug-In . SVG Version: 6.00 Build 0)  -->
<svg version="1.1" id="Layer_1" xmlns="http://www.w3.org/2000/svg" xmlns:xlink="http://www.w3.org/1999/xlink" x="0px" y="0px"
	 viewBox="0 0 39.8 4.6" enable-background="new 0 0 39.8 4.6" xml:space="preserve">
<g>
	<path fill="#FFFFFF" d="M0,0.1h0.5l2.8,3.5V0.1h0.5v4.4H3.4L0.5,0.9v3.6H0V0.1z"/>
	<path fill="#FFFFFF" d="M5.5,0.1h3.2v0.5H6V2h2.4v0.5H6V4h2.7v0.5H5.5V0.1z"/>
	<path fill="#FFFFFF" d="M10.4,0.1h1.9c0.5,0,0.9,0.1,1.2,0.4c0.2,0.2,0.3,0.4,0.3,0.7v0c0,0.6-0.4,0.9-0.7,1c0.5,0.2,1,0.5,1,1.1v0
		c0,0.8-0.6,1.2-1.6,1.2h-2V0.1z M13.2,1.2c0-0.4-0.3-0.7-1-0.7h-1.3V2h1.3C12.8,2,13.2,1.8,13.2,1.2L13.2,1.2z M12.3,2.5h-1.4V4
		h1.5c0.7,0,1.1-0.3,1.1-0.8v0C13.5,2.8,13.1,2.5,12.3,2.5z"/>
	<path fill="#FFFFFF" d="M15.3,0.1h1.9c0.5,0,1,0.2,1.3,0.4c0.2,0.2,0.3,0.5,0.3,0.9v0c0,0.7-0.5,1.2-1.2,1.3L19,4.5h-0.6l-1.3-1.7
		h-1.3v1.7h-0.5V0.1z M17.2,2.3c0.7,0,1.1-0.3,1.1-0.9v0c0-0.5-0.4-0.9-1.1-0.9h-1.4v1.8H17.2z"/>
	<path fill="#FFFFFF" d="M22.2,0h0.5l2,4.5h-0.5l-0.5-1.2h-2.4l-0.5,1.2h-0.5L22.2,0z M23.4,2.9l-1-2.3l-1,2.3H23.4z"/>
	<path fill="#FFFFFF" d="M25.8,3.8l0.3-0.4c0.5,0.4,0.9,0.6,1.5,0.6c0.6,0,1-0.3,1-0.8v0c0-0.4-0.2-0.6-1.2-0.8
		c-1-0.2-1.5-0.6-1.5-1.3v0C26,0.5,26.6,0,27.4,0c0.6,0,1.1,0.2,1.6,0.5l-0.3,0.4c-0.4-0.3-0.8-0.5-1.3-0.5c-0.6,0-0.9,0.3-0.9,0.7
		v0c0,0.4,0.2,0.7,1.2,0.9c1,0.2,1.4,0.6,1.4,1.3v0c0,0.8-0.6,1.3-1.5,1.3C26.9,4.6,26.3,4.3,25.8,3.8z"/>
	<path fill="#FFFFFF" d="M30.5,0.1H31v2.6l2.5-2.6h0.6L32.3,2l2,2.5h-0.6L32,2.3l-0.9,1v1.2h-0.5V0.1z"/>
	<path fill="#FFFFFF" d="M37.3,0h0.5l2,4.5h-0.5l-0.5-1.2h-2.4l-0.5,1.2h-0.5L37.3,0z M38.6,2.9l-1-2.3l-1,2.3H38.6z"/>
</g>
</svg>
