<?xml version="1.0" encoding="UTF-8" standalone="no"?>
<!-- Generator: Adobe Illustrator 19.1.0, SVG Export Plug-In . SVG Version: 6.00 Build 0)  -->

<svg
   version="1.1"
   id="Nebraska_N"
   x="0px"
   y="0px"
   viewBox="0 0 152 152"
   enable-background="new 0 0 174 152"
   xml:space="preserve"
   sodipodi:docname="UNL_N_Logo.svg"
   width="152"
   height="152"
   inkscape:version="1.2.2 (b0a8486541, 2022-12-01)"
   xmlns:inkscape="http://www.inkscape.org/namespaces/inkscape"
   xmlns:sodipodi="http://sodipodi.sourceforge.net/DTD/sodipodi-0.dtd"
   xmlns="http://www.w3.org/2000/svg"
   xmlns:svg="http://www.w3.org/2000/svg"><defs
   id="defs33" /><sodipodi:namedview
   id="namedview31"
   pagecolor="#505050"
   bordercolor="#eeeeee"
   borderopacity="1"
   inkscape:showpageshadow="0"
   inkscape:pageopacity="0"
   inkscape:pagecheckerboard="0"
   inkscape:deskcolor="#505050"
   showgrid="false"
   inkscape:zoom="4"
   inkscape:cx="61.875"
   inkscape:cy="77.625"
   inkscape:window-width="2560"
   inkscape:window-height="1356"
   inkscape:window-x="0"
   inkscape:window-y="0"
   inkscape:window-maximized="1"
   inkscape:current-layer="Nebraska_N" />

<g
   id="g28"
   transform="translate(-11)"
   style="display:inline">
	<path
   fill="#d00000"
   d="m 158,0 h -54 -5 v 5 35 5 h 5 5 V 69.8 L 66.2,2.3 64.8,0 H 62 16 11 v 5 35 5 h 5 5 v 62 h -5 -5 v 5 35 5 h 5 54 5 v -5 -35 -5 H 70 65 V 82.2 l 42.8,67.5 1.5,2.3 h 2.7 46 5 v -5 -35 -5 h -5 -5 V 45 h 5 5 V 40 5 0 Z m 3,5 v 35 3 h -3 -7 v 66 h 7 3 v 3 35 3 h -3 -46 -1.6 L 109.5,148.6 63,75.3 V 109 h 7 3 v 3 35 3 H 70 16 13 v -3 -35 -3 h 3 7 V 43 H 16 13 V 40 5 2 h 3 46 1.6 L 64.5,3.4 111,76.7 V 43 h -7 -3 V 40 5 2 h 3 54 3 z"
   id="path12"
   style="display:inline" />
	<path
   fill="#d00000"
   d="m 114,87 v 0 L 62,5 H 16 v 35 c 0,0 7.8,0 10,0 0,3.3 0,68.7 0,72 v 0 c -2.2,0 -10,0 -10,0 v 35 h 54 v -35 c 0,0 -7.8,0 -10,0 v 0 c 0,-2.6 0,-47 0,-47 l 52,82 h 46 v -35 c 0,0 -7.8,0 -10,0 v 0 c 0,-3.3 0,-68.7 0,-72 2.2,0 10,0 10,0 V 5 h -54 v 35 c 0,0 7.8,0 10,0 0,2.6 0,47 0,47 z"
   id="path14"
   style="display:inline" />
	<path
   fill="#d00000"
   d="m 26,112 c -2.2,0 -10,0 -10,0 v 0 c 0,0 7.8,0 10,0 z"
   id="path16"
   style="display:inline" />
	<polygon
   fill="#d00000"
   points="62,5 114,87 "
   id="polygon18"
   style="display:inline" />
	<path
   fill="#d00000"
   d="m 70,112 v 0 c 0,0 -7.8,0 -10,0 v 0 c 2.2,0 10,0 10,0 z"
   id="path20"
   style="display:inline" />
	<path
   fill="#d00000"
   d="m 158,112 v 0 c 0,0 -7.8,0 -10,0 v 0 c 2.2,0 10,0 10,0 z"
   id="path22"
   style="display:inline" />
	<path
   fill="#ffffff"
   d="m 158,2 h -54 -3 v 3 35 3 h 3 7 V 76.7 L 64.5,3.4 63.7,2 H 62 16 13 v 3 35 3 h 3 7 v 66 h -7 -3 v 3 35 3 h 3 54 3 v -3 -35 -3 H 70 63 V 75.3 l 46.5,73.3 0.9,1.4 h 1.6 46 3 v -3 -35 -3 h -3 -7 V 43 h 7 3 V 40 5 2 Z M 70,112 v 0 35 H 16 v -35 0 c 0,0 7.8,0 10,0 0,-3.3 0,-68.7 0,-72 -2.2,0 -10,0 -10,0 V 5 h 46 l 52,82 c 0,0 0,-44.4 0,-47 -2.2,0 -10,0 -10,0 V 5 h 54 v 35 c 0,0 -7.8,0 -10,0 0,3.3 0,68.7 0,72 2.2,0 10,0 10,0 v 0 35 H 112 L 60,65 c 0,0 0,44.4 0,47 2.2,0 10,0 10,0 z"
   id="path24"
   style="display:inline" />
	<path
   fill="#d00000"
   d="M 114,87 62,5 H 16 v 35 c 0,0 7.8,0 10,0 0,3.3 0,68.7 0,72 -2.2,0 -10,0 -10,0 v 35 h 54 v -35 c 0,0 -7.8,0 -10,0 0,-2.6 0,-47 0,-47 l 52,82 h 46 v -35 c 0,0 -7.8,0 -10,0 0,-3.3 0,-68.7 0,-72 2.2,0 10,0 10,0 V 5 h -54 v 35 c 0,0 7.8,0 10,0 0,2.6 0,47 0,47 z"
   id="path26"
   style="display:inline" />
</g>
</svg>
